# xmcd CD database file
#
# Track frame offsets:
#	150
#	27718
#	69278
#	96687
#	114978
#	134577
#	171499
#	204666
#	232634
#
# Disc length: 3433 seconds
#
# Revision: 0
# Processed by: cddbd v1.5.1PL2 Copyright (c) Steve Scherf et al.
# Submitted via: CDex 1.51
#
DISCID=810d6709
DTITLE=The Trio - Just Swing, What Else?
DYEAR=2004
DGENRE=Jazz
TTITLE0=Unit 7
TTITLE1=Estate
TTITLE2=F.S.R.
TTITLE3=This Love of Mine
TTITLE4=All Of Me
TTITLE5=Deep Purple
TTITLE6=Sailin' Again
TTITLE7=Have You Met Miss Jones?
TTITLE8=Easy Livin'
EXTD=YEAR: 2004
EXTT0=
EXTT1=
EXTT2=
EXTT3=
EXTT4=
EXTT5=
EXTT6=
EXTT7=
EXTT8=
PLAYORDER=
